<?xml version="1.0" encoding="UTF-8"?>
<svg width="232px" height="61px" viewBox="0 0 232 61" version="1.1" xmlns="http://www.w3.org/2000/svg" xmlns:xlink="http://www.w3.org/1999/xlink">
    <title>Group 2</title>
    <g id="Page-1" stroke="none" stroke-width="1" fill="none" fill-rule="evenodd">
        <g id="Group-2" fill="#FFFFFF">
            <text id="AM" font-family="Apple-Chancery, Apple Chancery" font-size="18" font-weight="normal">
                <tspan x="19" y="35">AM</tspan>
            </text>
            <text id="DRIVE" font-family="Helvetica" font-size="33" font-weight="normal" letter-spacing="8.43333333">
                <tspan x="88" y="43">DRIVE</tspan>
            </text>
            <g id="couronne-de-laurier" fill-rule="nonzero">
                <path d="M16.3278047,8.08664498 C17.4613098,7.12352067 18.8328182,5.64934765 18.9870318,4.1727596 C19.1411672,2.69617156 18.2867004,1.17502255 17.3763477,0 C16.0967578,0.858577443 15.0676771,2.29153938 14.8700054,3.81627195 C14.6723338,5.34100453 15.3092758,6.93203321 16.3278828,8.08664498 M23.4593826,9.94628586 C22.7286461,8.6223892 21.3503377,7.67398871 19.8493149,7.46224626 C18.348292,7.25050382 16.7600405,7.78040526 15.6893776,8.85017982 C15.695865,9.82031546 16.7334654,10.5327454 17.4458337,10.8383619 C19.5491728,11.7406434 21.5403495,11.1913439 23.4594607,9.94636376 L23.4593826,9.94628586 Z M11.6258922,13.3371253 C10.220227,12.7257365 9.10680947,11.4807564 8.65847231,10.0188922 C8.21013515,8.55702794 8.4347727,6.90437737 9.25719314,5.61405724 C10.7908095,6.06060164 12.0660223,7.12211841 12.5700108,8.63329573 C13.0740775,10.144473 12.586034,12.0642556 11.6258922,13.3371253 L11.6258922,13.3371253 Z M19.3013212,14.18986 C18.4207482,15.5381405 16.865012,16.4232831 15.2524521,16.4936303 C13.6398921,16.5638995 12.0125595,15.8175034 11.0171666,14.5510219 C11.219528,13.626382 12.2274268,13.0209918 13.1337151,12.7387465 C15.0715852,12.1353039 17.5092231,13.2390445 19.3013212,14.1897821 L19.3013212,14.18986 Z M4.41247867,12.9846887 C3.64313023,14.2993148 3.77999187,16.1418168 4.60225598,17.4412517 C5.42444192,18.7406866 6.83870492,19.501339 8.25765764,19.6104822 C8.95259587,18.2615005 9.09641393,16.467143 8.37466614,15.1137208 C7.65291835,13.7602986 5.82041055,12.9727694 4.41247867,12.9846887 L4.41247867,12.9846887 Z M15.85172,19.9266936 C14.6924996,18.9768129 13.1193333,18.4682571 11.6344118,18.6840505 C10.1494904,18.899844 8.77571529,19.8367147 7.93695901,21.0770206 C9.10423013,22.0649962 10.6672354,22.5221355 12.1899091,22.3596283 C13.7125827,22.197121 14.9207326,21.1385646 15.85172,19.9266157 L15.85172,19.9266936 Z M6.82916916,26.3035845 C5.45312737,26.519378 3.74067639,25.9053404 2.74411105,24.9352827 C1.31445014,23.5436877 1.2544999,21.7399038 1.61029326,20.3975439 C2.88706933,20.5517155 4.51807552,20.9333661 5.6626015,22.1185161 C6.86176271,23.3603022 6.79938944,25.0220675 6.82924732,26.3035845 L6.82916916,26.3035845 Z M14.166782,25.3076627 C12.8610079,24.3870739 11.0777421,24.183745 9.59711962,24.7866423 C8.11649709,25.3895396 6.98611843,26.7791091 6.70059269,28.3477015 C7.93734982,29.0672986 9.61970843,29.1208185 10.9397081,28.5673122 C12.3137177,27.9912139 13.2175047,26.4533156 14.166782,25.3077406 L14.166782,25.3076627 Z M7.01980625,33.0389107 C6.49518299,31.7266217 6.45438243,30.942754 4.36315846,29.6535245 C3.15782245,28.9104004 1.4064468,28.9434316 0,29.1183256 C0.520480674,30.5935114 0.888701796,31.8744052 2.09341251,32.8121328 C3.29812322,33.7498605 5.57717045,33.5427144 7.01972809,33.0389107 L7.01980625,33.0389107 Z M14.5400837,30.6400199 C12.636214,30.4049064 11.3168397,30.4371585 10.0452223,31.2152614 C8.68215539,32.0492991 7.89889412,33.7393435 7.80603768,34.4477225 C9.14635944,35.1587502 10.938692,35.0200036 12.0326471,34.3349957 C13.2270405,33.5870416 14.1235585,31.9832367 14.5401619,30.6400199 L14.5400837,30.6400199 Z M1.27677606,38.1252478 C2.49883874,37.4682074 3.91380519,36.981231 5.29180103,37.1514507 C6.66979687,37.3216704 7.99479888,38.002004 9.0189554,38.9366156 C8.38920427,40.0316309 7.24827374,40.8481404 5.98236219,40.8131616 C5.10124211,40.7887777 4.25506043,40.4336923 3.52291709,39.9445345 C2.79077376,39.4553768 1.90457315,38.7420119 1.27677606,38.1253257 L1.27677606,38.1252478 Z M10.2174913,40.5833454 C9.97933174,39.6846476 10.3376263,38.5706237 10.9529956,37.8722164 C11.5683649,37.1738091 12.480828,36.8414716 13.3180992,36.4320873 C14.1553704,36.022703 14.9609078,35.793588 15.7052444,35.2334599 C16.116142,37.1843261 15.7505002,38.4970825 14.5118672,39.6413331 C13.2092977,40.8447126 11.5156838,40.9720073 10.2174913,40.5832675 L10.2174913,40.5833454 Z M6.18511438,46.9859446 C7.03176503,47.4328007 7.8880296,47.8833961 8.81526526,48.1236513 C9.74250092,48.3639065 10.7612643,48.3776955 11.6265956,47.9679216 C12.491927,47.5581478 14.0954983,46.4034582 13.6070641,45.5820408 C13.1188643,44.761013 11.8781991,44.0773295 10.9094594,43.9229242 C9.94071972,43.768519 8.9315703,44.0897162 8.14518254,44.674384 C7.35879479,45.2590518 6.59280731,46.0965952 6.18519255,46.9860225 L6.18511438,46.9859446 Z M18.8228135,40.5135437 C17.4115206,40.8012423 15.993584,41.211951 14.9615331,42.102391 C13.9294823,42.9928311 13.363824,44.4645891 13.9111923,45.8293853 C14.6252803,46.1871973 15.4575491,46.2315245 16.1470942,45.9853486 C16.8366392,45.7392506 17.3874467,45.2561693 17.7970156,44.6892636 C18.5923138,43.5886392 19.1166244,41.9271076 18.8228135,40.5134658 L18.8228135,40.5135437 Z M19.364476,50.5832291 C18.8692417,52.1124801 17.6063785,53.3563696 16.091052,53.8072766 C14.5757256,54.2582615 12.8497526,53.9039552 11.617138,52.888947 C12.2687745,51.4659567 13.4376089,50.3069044 14.9373811,49.9490145 C16.4371533,49.5911246 18.1524963,49.6050694 19.364476,50.5832291 L19.364476,50.5832291 Z M23.4568814,44.3835692 C23.8665284,45.7163469 24.2791455,47.1010864 23.9846311,48.3284603 C23.655491,49.7002678 22.3940347,50.7381018 20.7448949,50.993782 C20.0229126,50.457025 19.8191443,49.7533981 19.8181243,49.0367614 C19.8152362,47.0037067 21.4058327,45.164944 23.4568032,44.3836471 L23.4568814,44.3835692 Z M53.6721953,8.08664498 C52.5386902,7.12352067 51.1671818,5.64934765 51.0129682,4.1727596 C50.8588328,2.69617156 51.7132996,1.17502255 52.6236523,0 C53.9032422,0.858577443 54.9323229,2.29153938 55.1299946,3.81627195 C55.3276662,5.34100453 54.6907242,6.93203321 53.6721172,8.08664498 M46.5406174,9.94628586 C47.2713539,8.6223892 48.6496623,7.67398871 50.1506851,7.46224626 C51.651708,7.25050382 53.2399595,7.78040526 54.3106224,8.85017982 C54.304135,9.82031546 53.2665346,10.5327454 52.5541663,10.8383619 C50.4508272,11.7406434 48.4596505,11.1913439 46.5405393,9.94636376 L46.5406174,9.94628586 Z M58.3741078,13.3371253 C59.779773,12.7257365 60.8931905,11.4807564 61.3415277,10.0188922 C61.7898648,8.55702794 61.5652273,6.90437737 60.7428069,5.61405724 C59.2091905,6.06060164 57.9339777,7.12211841 57.4299892,8.63329573 C56.9259225,10.144473 57.413966,12.0642556 58.3741078,13.3371253 Z M50.6986788,14.18986 C51.5792518,15.5381405 53.134988,16.4232831 54.7475479,16.4936303 C56.3601079,16.5639774 57.9874405,15.8175034 58.9828334,14.5510219 C58.780472,13.626382 57.7725732,13.0209918 56.8662849,12.7387465 C54.9284148,12.1353039 52.4907769,13.2390445 50.6986788,14.1897821 L50.6986788,14.18986 Z M65.5875213,12.9846887 C66.3568698,14.2993148 66.2200081,16.1418168 65.397744,17.4412517 C64.5755581,18.7406866 63.1612951,19.501339 61.7423424,19.6104822 C61.0474041,18.2615005 60.9035861,16.467143 61.6253339,15.1137208 C62.3470817,13.7602207 64.1795894,12.9727694 65.5875213,12.9846887 L65.5875213,12.9846887 Z M54.14828,19.9266936 C55.3075004,18.9768129 56.8806667,18.4682571 58.3655882,18.6840505 C59.8505878,18.899844 61.2242847,19.8367147 62.063041,21.0770206 C60.8957699,22.0649962 59.3327646,22.5221355 57.8100909,22.3596283 C56.2874173,22.197121 55.0792674,21.1385646 54.14828,19.9266157 L54.14828,19.9266936 Z M63.1708308,26.3035845 C64.5468726,26.519378 66.2593236,25.9053404 67.2558889,24.9352827 C68.6855499,23.5436877 68.7455001,21.7399038 68.3897067,20.3975439 C67.1129307,20.5517155 65.4819245,20.9333661 64.3373985,22.1185161 C63.1382373,23.3603022 63.2006106,25.0220675 63.1707527,26.3035845 L63.1708308,26.3035845 Z M55.833218,25.3076627 C57.1389921,24.3870739 58.9222579,24.183745 60.4028804,24.7866423 C61.8835029,25.3895396 63.0138816,26.7791091 63.2994073,28.3477015 C62.0626502,29.0672986 60.3802916,29.1208185 59.0602919,28.5673122 C57.6862823,27.9912139 56.7824953,26.4533156 55.833218,25.3077406 L55.833218,25.3076627 Z M62.9801938,33.0389107 C63.504817,31.7266217 63.5456176,30.942754 65.6368415,29.6535245 C66.8421775,28.9104004 68.5935532,28.9434316 70,29.1183256 C69.4795193,30.5935114 69.1112982,31.8744052 67.9065875,32.8121328 C66.7018768,33.7498605 64.4228296,33.5427144 62.9802719,33.0389107 L62.9801938,33.0389107 Z M55.4599163,30.6400199 C57.363786,30.4049064 58.6831603,30.4371585 59.9547777,31.2152614 C61.3178446,32.0492991 62.1011059,33.7393435 62.1939623,34.4477225 C60.8536406,35.1587502 59.061308,35.0200036 57.9673529,34.3349957 C56.7729595,33.5870416 55.8764415,31.9832367 55.4598381,30.6400199 L55.4599163,30.6400199 Z M68.7232239,38.1252478 C67.5011613,37.4682074 66.0861948,36.981231 64.708199,37.1514507 C63.3302031,37.3216704 62.0052011,38.002004 60.9810446,38.9366156 C61.6107957,40.0316309 62.7517263,40.8481404 64.0176378,40.8131616 C64.8987579,40.7887777 65.7449396,40.4336923 66.4770829,39.9445345 C67.2092262,39.4553768 68.0954269,38.7420119 68.7232239,38.1253257 L68.7232239,38.1252478 Z M59.7825087,40.5833454 C60.0206683,39.6846476 59.6623737,38.5706237 59.0470044,37.8722164 C58.4316351,37.1738091 57.519172,36.8414716 56.6819008,36.4320873 C55.8446296,36.022703 55.0390922,35.793588 54.2947556,35.2334599 C53.883858,37.1843261 54.2494998,38.4970825 55.4881328,39.6413331 C56.7907023,40.8447126 58.4843162,40.9720073 59.7825087,40.5832675 L59.7825087,40.5833454 Z M63.8148856,46.9859446 C62.968235,47.4328007 62.1119704,47.8833961 61.1847347,48.1236513 C60.2575772,48.3639065 59.2387357,48.3776955 58.3734044,47.9679216 C57.508073,47.5581478 55.9045017,46.4034582 56.3929359,45.5820408 C56.8811357,44.761013 58.1218009,44.0773295 59.0905406,43.9229242 C60.0592803,43.768519 61.0684297,44.0897162 61.8548175,44.674384 C62.6412052,45.2590518 63.4071927,46.0965952 63.8148075,46.9860225 L63.8148856,46.9859446 Z M51.1771865,40.5135437 C52.5884794,40.8012423 54.006416,41.211951 55.0384669,42.102391 C56.0705177,42.9928311 56.636176,44.4645891 56.0888077,45.8293853 C55.3747197,46.1871973 54.5424509,46.2315245 53.8529058,45.9853486 C53.1633608,45.7391727 52.6125533,45.2561693 52.2029844,44.6892636 C51.4076862,43.5886392 50.8833756,41.9271076 51.1771865,40.5134658 L51.1771865,40.5135437 Z M50.635524,50.5832291 C51.1307583,52.1124801 52.3936215,53.3563696 53.908948,53.8072766 C55.4242744,54.2582615 57.1502474,53.9039552 58.382862,52.888947 C57.7312255,51.4659567 56.5623911,50.3069044 55.0626189,49.9490145 C53.5629249,49.5910467 51.8475037,49.6050694 50.635524,50.5832291 L50.635524,50.5832291 Z M46.5431186,44.3835692 C46.1334716,45.7163469 45.7208545,47.1010864 46.0153689,48.3284603 C46.344509,49.7002678 47.6059653,50.7381018 49.2551051,50.993782 C49.9770874,50.457025 50.1808557,49.7533981 50.1818757,49.0367614 C50.1847638,47.0037067 48.5941673,45.164944 46.5431968,44.3836471 L46.5431186,44.3835692 Z" id="Shape"></path>
                <path d="M44.2173405,61 C44.0013938,61 43.7949687,60.9110765 43.6471633,60.7535256 C41.1539006,58.1029551 37.1036308,57.1356286 32.4137416,56.0155291 C29.0520215,55.2126488 25.241785,54.3026708 21.6319678,52.6028961 C17.4683358,50.6424674 14.1692467,47.9169207 11.5460247,44.2705844 C8.14899636,39.5488053 6.29605758,34.7693642 6.0385658,30.0648994 C5.75555187,24.8926361 7.03439904,19.6618491 9.73669275,14.9379546 C12.4389865,10.2140602 16.2989363,6.46195807 20.8992631,4.08731896 C21.2833479,3.88902759 21.7555858,4.03984185 21.9539695,4.4244378 C22.1521184,4.80895541 22.001256,5.28153288 21.6170146,5.4799026 C17.2857664,7.71571425 13.647452,11.2555013 11.0954728,15.7164696 C8.5434935,20.177438 7.33549768,25.1094953 7.60199267,29.9791899 C7.84280895,34.3799109 9.59726044,38.8802084 12.8165732,43.3550439 C18.3493977,51.0456311 26.0143387,52.8762421 32.7770798,54.4914041 C37.5061134,55.6209049 41.9729578,56.6876514 44.7871262,59.6795714 C45.0835275,59.9945969 45.0685743,60.4904429 44.7536969,60.7870573 C44.6086071,60.9240158 44.4166374,61 44.2171839,61 L44.2173405,61 Z" id="Path"></path>
                <path d="M25.9654924,61 C25.7739785,61 25.582075,60.9296166 25.4315442,60.7874434 C25.1182499,60.4913666 25.1032903,59.9964977 25.3982747,59.681965 C28.1989901,56.6955465 32.6444809,55.6306555 37.3509076,54.5032019 C44.0813197,52.8909677 51.7096188,51.063675 57.2159938,43.387028 C60.4199168,38.9203038 62.1659812,34.4281637 62.4056463,30.0354196 C62.6708673,25.1744738 61.4686462,20.2514348 58.9288666,15.7985526 C56.389087,11.3456703 52.7682434,7.81229968 48.4576225,5.58054076 C48.075218,5.38253061 47.9250768,4.91088796 48.1222784,4.52698914 C48.3194801,4.14309031 48.7896163,3.99254942 49.1719428,4.19048137 C53.750278,6.56081611 57.5916976,10.3061171 60.281151,15.0214487 C62.9706044,19.7367804 64.2433381,24.9580859 63.9615992,30.1209737 C63.7053384,34.8169111 61.8612575,39.5876887 58.4804685,44.300909 C55.8697867,47.9406358 52.5864688,50.661242 48.4427408,52.6181172 C44.8502581,54.3147326 41.0582363,55.2231393 37.7125089,56.0245643 C33.0450395,57.1426334 29.0140539,58.1082848 26.532788,60.7539725 C26.3856728,60.9112143 26.1802451,61 25.9653366,61 L25.9654924,61 Z M28.8806642,3.52075036 C28.4677172,2.79393113 27.7099206,2.30054802 26.8989084,2.10691725 C26.087974,1.91328647 25.2291223,1.9984496 24.4297972,2.23571769 C23.0769674,2.6372904 21.8575272,3.47914634 21,4.60354993 C21.9364546,5.75047601 23.6052278,6.51530193 25.0701766,6.32323522 C26.5352034,6.1311685 28.2690352,4.87069158 28.8806642,3.52075036 L28.8806642,3.52075036 Z" id="Shape"></path>
                <path d="M41,3.39750515 C41.4192002,2.72958907 42.188472,2.2761909 43.0117653,2.09825242 C43.8349795,1.92031394 44.7068367,1.99857525 45.5182659,2.21661457 C46.8915814,2.58564287 48.1294874,3.35927281 49,4.39255207 C48.0493648,5.44652854 46.3553216,6.14937116 44.8681892,5.97286998 C43.3809778,5.79636881 41.6208908,4.63804393 41,3.39750515 L41,3.39750515 Z" id="Path"></path>
            </g>
        </g>
    </g>
</svg>