<?xml version="1.0" encoding="UTF-8"?>
<svg width="133px" height="116px" viewBox="0 0 133 116" version="1.1" xmlns="http://www.w3.org/2000/svg" xmlns:xlink="http://www.w3.org/1999/xlink">
    <title>Group</title>
    <g id="Page-1" stroke="none" stroke-width="1" fill="none" fill-rule="evenodd">
        <g id="Group" fill="#A88469">
            <g id="couronne-de-laurier" fill-rule="nonzero">
                <path d="M31.0228289,15.4245265 C33.1764887,13.5874561 35.7823546,10.7756075 36.0753604,7.95915257 C36.3682178,5.1426976 34.7447308,2.24124672 33.0150607,0 C30.5838399,1.63765697 28.6285865,4.37089918 28.2530104,7.27918539 C27.8774342,10.1874716 29.0876241,13.2222115 31.0229774,15.4245265 M44.5728269,18.9716193 C43.1844277,16.446409 40.5656416,14.6374229 37.7136982,14.2335438 C34.8617549,13.8296647 31.8440769,14.8404026 29.8098174,16.8808985 C29.8221435,18.7313425 31.7935842,20.0902367 33.1470841,20.6731718 C37.1434284,22.3941901 40.926664,21.3464522 44.5729754,18.9717679 L44.5728269,18.9716193 Z M22.0891951,25.4393316 C19.4184313,24.2731641 17.302938,21.8984798 16.4510974,19.1101091 C15.5992568,16.3217385 16.0260681,13.1694605 17.588667,10.7082944 C20.502538,11.5600365 22.9254424,13.5847814 23.8830205,16.4672122 C24.8407472,19.349643 23.9134646,23.0114506 22.0891951,25.4393316 L22.0891951,25.4393316 Z M36.6725102,27.065844 C34.9994216,29.6375643 32.0435228,31.3258919 28.9796589,31.4600725 C25.915795,31.5941045 22.8238631,30.1704232 20.9326166,27.7547269 C21.3171032,25.991062 23.232111,24.8363363 24.9540586,24.2979794 C28.6360119,23.1469685 33.2675239,25.2522515 36.6725102,27.0656954 L36.6725102,27.065844 Z M8.38370948,24.7670914 C6.92194744,27.2746189 7.18198456,30.789021 8.74428636,33.2675727 C10.3064397,35.7461244 12.9935394,37.1969984 15.6895495,37.4051789 C17.0099322,34.8321213 17.2831865,31.4095505 15.9118657,28.828023 C14.5405449,26.2464955 11.05878,24.7443564 8.38370948,24.7670914 L8.38370948,24.7670914 Z M30.118268,38.0083229 C27.9157492,36.1965135 24.9267332,35.2264904 22.1053825,35.6380964 C19.2840317,36.0497024 16.6738591,37.8366966 15.0802221,40.2024653 C17.2980372,42.0869372 20.2677472,42.9588882 23.1608272,42.6489206 C26.0539072,42.3389531 28.3493919,40.3198547 30.118268,38.0081743 L30.118268,38.0083229 Z M12.9754214,50.1716519 C10.360942,50.5832579 7.10728514,49.4120382 5.213811,47.5617429 C2.49745527,44.9074043 2.3835498,41.4668535 3.0595572,38.9064264 C5.48543172,39.2004944 8.58434348,39.9284575 10.7589428,42.1890215 C13.0373491,44.5576135 12.9188399,47.7272769 12.9755699,50.1716519 L12.9754214,50.1716519 Z M26.9168859,48.2720233 C24.435915,46.5160854 21.0477101,46.1282544 18.2345273,47.2782252 C15.4213445,48.4281959 13.273625,51.0786711 12.7311261,54.0706159 C15.0809647,55.4431807 18.277446,55.545265 20.7854453,54.489503 C23.3960635,53.3906487 25.113259,50.45725 26.9168859,48.2721719 L26.9168859,48.2720233 Z M13.3376319,63.018663 C12.3408477,60.5155933 12.2633266,59.0204381 8.29000107,56.5613523 C5.99986266,55.143912 2.67224892,55.2069159 0,55.5405099 C0.98891328,58.3542902 1.68853341,60.7974765 3.97748376,62.5861052 C6.26643412,64.3747339 10.5966238,63.9796219 13.3374834,63.018663 L13.3376319,63.018663 Z M27.626159,58.443001 C24.0088066,57.9945436 21.5019954,58.0560616 19.0859224,59.5402207 C16.4960953,61.1310705 15.0078988,64.3546737 14.8314716,65.705841 C17.3780829,67.0620605 20.7835147,66.7974142 22.8620296,65.4908252 C25.1313769,64.064172 26.8347611,61.0050626 27.6263075,58.443001 L27.626159,58.443001 Z M2.42587452,72.7203801 C4.7477936,71.4671364 7.43622987,70.5382739 10.054422,70.8629522 C12.672614,71.1876306 15.1901179,72.485304 17.1360153,74.2679889 C15.9394881,76.3566294 13.7717201,77.9140455 11.3664882,77.8473267 C9.69236,77.8008167 8.08461482,77.1235242 6.69354248,76.1905011 C5.30247014,75.2574779 3.61868898,73.8968006 2.42587452,72.7205287 L2.42587452,72.7203801 Z M19.4132335,77.4089737 C18.9607303,75.6947907 19.6414899,73.5698933 20.8106917,72.237746 C21.9798934,70.9055988 23.7135732,70.2716958 25.3043885,69.4908331 C26.8952038,68.7099705 28.4257249,68.2729549 29.8399644,67.2045624 C30.6206698,70.925659 29.9259504,73.4296203 27.5725477,75.6121723 C25.0976656,77.9075073 21.8797991,78.1503103 19.4132335,77.4088251 L19.4132335,77.4089737 Z M11.7517173,89.6213388 C13.3603536,90.4736753 14.9872562,91.3331443 16.749004,91.7914089 C18.5107517,92.2496735 20.4464021,92.2759747 22.0905317,91.4943691 C23.7346613,90.7127634 26.7814468,88.5102998 25.8534217,86.9435223 C24.9258421,85.3774877 22.5685782,84.0734248 20.7279728,83.778911 C18.8873675,83.4843973 16.9699836,84.0970513 15.4758468,85.2122509 C13.9817101,86.3274506 12.5263339,87.9249871 11.7518658,89.6214874 L11.7517173,89.6213388 Z M35.7633456,77.2758333 C33.0818892,77.8245918 30.3878096,78.6079805 28.426913,80.3064125 C26.4660163,82.0048446 25.3912655,84.8120867 26.4312655,87.4153089 C27.7880325,88.0978022 29.3693433,88.1823523 30.6794789,87.7127946 C31.9896145,87.2433854 33.0361488,86.3219526 33.8143295,85.2406324 C35.3253962,83.1412932 36.3215863,79.9720755 35.7633456,77.2756847 L35.7633456,77.2758333 Z M36.7925045,96.4828259 C35.8515592,99.3997305 33.4521191,101.772335 30.5729988,102.632398 C27.6938786,103.49261 24.4145299,102.816803 22.0725622,100.880769 C23.3106716,98.166547 25.5314569,95.9557621 28.3810241,95.2731203 C31.2305913,94.5904784 34.4897429,94.6170767 36.7925045,96.4828259 L36.7925045,96.4828259 Z M44.5680746,84.6575487 C45.3464039,87.1996987 46.1303764,89.8409611 45.5707991,92.1820632 C44.9454329,94.7986589 42.5486659,96.7782312 39.4153003,97.2659174 C38.043534,96.2421032 37.6563742,94.9000002 37.6544361,93.5330819 C37.6489488,89.6552183 40.6710821,86.1479488 44.5679261,84.6576973 L44.5680746,84.6575487 Z M101.977171,15.4245265 C99.8235113,13.5874561 97.2176454,10.7756075 96.9246396,7.95915257 C96.6317822,5.1426976 98.2552692,2.24124672 99.9849393,0 C102.41616,1.63765697 104.371413,4.37089918 104.74699,7.27918539 C105.122566,10.1874716 103.912376,13.2222115 101.977023,15.4245265 M88.4271731,18.9716193 C89.8155723,16.446409 92.4343584,14.6374229 95.2863018,14.2335438 C98.1382451,13.8296647 101.155923,14.8404026 103.190183,16.8808985 C103.177856,18.7313425 101.206416,20.0902367 99.8529159,20.6731718 C95.8565716,22.3941901 92.073336,21.3464522 88.4270246,18.9717679 L88.4271731,18.9716193 Z M110.910805,25.4393316 C113.581569,24.2731641 115.697062,21.8984798 116.548903,19.1101091 C117.400743,16.3217385 116.973932,13.1694605 115.411333,10.7082944 C112.497462,11.5600365 110.074558,13.5847814 109.116979,16.4672122 C108.159253,19.349643 109.086535,23.0114506 110.910805,25.4393316 Z M96.3274898,27.065844 C98.0005784,29.6375643 100.956477,31.3258919 104.020341,31.4600725 C107.084205,31.5942531 110.176137,30.1704232 112.067383,27.7547269 C111.682897,25.991062 109.767889,24.8363363 108.045941,24.2979794 C104.363988,23.1469685 99.7324761,25.2522515 96.3274898,27.0656954 L96.3274898,27.065844 Z M124.616291,24.7670914 C126.078053,27.2746189 125.818015,30.789021 124.255714,33.2675727 C122.69356,35.7461244 120.006461,37.1969984 117.31045,37.4051789 C115.990068,34.8321213 115.716814,31.4095505 117.088134,28.828023 C118.459455,26.2463469 121.94122,24.7443564 124.616291,24.7670914 L124.616291,24.7670914 Z M102.881732,38.0083229 C105.084251,36.1965135 108.073267,35.2264904 110.894618,35.6380964 C113.716117,36.0497024 116.326141,37.8366966 117.919778,40.2024653 C115.701963,42.0869372 112.732253,42.9588882 109.839173,42.6489206 C106.946093,42.3389531 104.650608,40.3198547 102.881732,38.0081743 L102.881732,38.0083229 Z M120.024579,50.1716519 C122.639058,50.5832579 125.892715,49.4120382 127.786189,47.5617429 C130.502545,44.9074043 130.61645,41.4668535 129.940443,38.9064264 C127.514568,39.2004944 124.415657,39.9284575 122.241057,42.1890215 C119.962651,44.5576135 120.08116,47.7272769 120.02443,50.1716519 L120.024579,50.1716519 Z M106.083114,48.2720233 C108.564085,46.5160854 111.95229,46.1282544 114.765473,47.2782252 C117.578656,48.4281959 119.726375,51.0786711 120.268874,54.0706159 C117.919035,55.4431807 114.722554,55.545265 112.214555,54.489503 C109.603936,53.3906487 107.886741,50.45725 106.083114,48.2721719 L106.083114,48.2720233 Z M119.662368,63.018663 C120.659152,60.5155933 120.736673,59.0204381 124.709999,56.5613523 C127.000137,55.143912 130.327751,55.2069159 133,55.5405099 C132.011087,58.3542902 131.311467,60.7974765 129.022516,62.5861052 C126.733566,64.3747339 122.403376,63.9796219 119.662517,63.018663 L119.662368,63.018663 Z M105.373841,58.443001 C108.991193,57.9945436 111.498005,58.0560616 113.914078,59.5402207 C116.503905,61.1310705 117.992101,64.3546737 118.168528,65.705841 C115.621917,67.0620605 112.216485,66.7974142 110.13797,65.4908252 C107.868623,64.064172 106.165239,61.0050626 105.373692,58.443001 L105.373841,58.443001 Z M130.574125,72.7203801 C128.252206,71.4671364 125.56377,70.5382739 122.945578,70.8629522 C120.327386,71.1876306 117.809882,72.485304 115.863985,74.2679889 C117.060512,76.3566294 119.22828,77.9140455 121.633512,77.8473267 C123.30764,77.8008167 124.915385,77.1235242 126.306458,76.1905011 C127.69753,75.2574779 129.381311,73.8968006 130.574125,72.7205287 L130.574125,72.7203801 Z M113.586767,77.4089737 C114.03927,75.6947907 113.35851,73.5698933 112.189308,72.237746 C111.020107,70.9055988 109.286427,70.2716958 107.695612,69.4908331 C106.104796,68.7099705 104.574275,68.2729549 103.160036,67.2045624 C102.37933,70.925659 103.07405,73.4296203 105.427452,75.6121723 C107.902334,77.9075073 111.120201,78.1503103 113.586767,77.4088251 L113.586767,77.4089737 Z M121.248283,89.6213388 C119.639646,90.4736753 118.012744,91.3331443 116.250996,91.7914089 C114.489397,92.2496735 112.553598,92.2759747 110.909468,91.4943691 C109.265339,90.7127634 106.218553,88.5102998 107.146578,86.9435223 C108.074158,85.3774877 110.431422,84.0734248 112.272027,83.778911 C114.112633,83.4843973 116.030016,84.0970513 117.524153,85.2122509 C119.01829,86.3274506 120.473666,87.9249871 121.248134,89.6214874 L121.248283,89.6213388 Z M97.2366544,77.2758333 C99.9181108,77.8245918 102.61219,78.6079805 104.573087,80.3064125 C106.533984,82.0048446 107.608734,84.8120867 106.568735,87.4153089 C105.211967,88.0978022 103.630657,88.1823523 102.320521,87.7127946 C101.010385,87.2432368 99.9638512,86.3219526 99.1856705,85.2406324 C97.6746038,83.1412932 96.6784137,79.9720755 97.2366544,77.2756847 L97.2366544,77.2758333 Z M96.2074955,96.4828259 C97.1484408,99.3997305 99.5478809,101.772335 102.427001,102.632398 C105.306121,103.49261 108.58547,102.816803 110.927438,100.880769 C109.689328,98.166547 107.468543,95.9557621 104.618976,95.2731203 C101.769557,94.5903298 98.5102571,94.6170767 96.2074955,96.4828259 L96.2074955,96.4828259 Z M88.4319254,84.6575487 C87.6535961,87.1996987 86.8696236,89.8409611 87.4292009,92.1820632 C88.0545671,94.7986589 90.4513341,96.7782312 93.5846997,97.2659174 C94.956466,96.2421032 95.3436258,94.9000002 95.3455639,93.5330819 C95.3510512,89.6552183 92.3289179,86.1479488 88.4320739,84.6576973 L88.4319254,84.6575487 Z" id="Shape"></path>
                <path d="M83.5149537,116 C83.1052088,116 82.7135303,115.831513 82.4330791,115.532996 C77.702273,110.510862 70.0171455,108.678033 61.1183815,106.555739 C54.7397331,105.034492 47.5100536,103.310324 40.6606569,100.089698 C32.760432,96.3752014 26.500622,91.2110076 21.5232263,84.3021599 C15.0775828,75.3556311 11.5617503,66.299848 11.0731761,57.3861251 C10.5361753,47.5860474 12.9627059,37.6750824 18.090135,28.7245457 C23.2175641,19.7740089 30.5415715,12.6647627 39.2703967,8.16544645 C39.9991729,7.78973648 40.895214,8.07548982 41.2716345,8.80419794 C41.6476093,9.53275762 41.3613575,10.4281676 40.6322842,10.804026 C32.4140182,15.0403007 25.51055,21.7472655 20.6683329,30.1996267 C15.8261159,38.6519878 13.5340212,47.9969384 14.0396784,57.2237282 C14.4966119,65.5619364 17.8255711,74.088816 23.9340108,82.5674516 C34.4321905,97.1390905 48.9759247,100.607617 61.8077924,103.667923 C70.7808305,105.80803 79.2563815,107.829234 84.5960856,113.498135 C85.1584881,114.095026 85.1301154,115.034523 84.5326556,115.59653 C84.257357,115.85603 83.8931069,116 83.5146566,116 L83.5149537,116 Z" id="Path"></path>
                <path d="M49.4690785,116 C49.103866,116 48.7379106,115.866391 48.4508517,115.596503 C47.8534068,115.034459 47.8248792,114.095046 48.3874076,113.497967 C53.7283066,107.828834 62.2057544,105.807346 71.1808005,103.667095 C84.0155399,100.606583 98.5625288,97.1378237 109.063058,82.5652057 C115.172865,74.0860005 118.502569,65.558548 118.959604,57.2197796 C119.465375,47.9922215 117.172767,38.6467914 112.329467,30.1938625 C107.486166,21.7409335 100.581301,15.033518 92.3610476,10.7969587 C91.6318111,10.4210751 91.3454952,9.52575341 91.7215542,8.79699632 C92.0976131,8.06823924 92.994152,7.7824667 93.7232398,8.15820192 C102.454018,12.6578204 109.779516,19.7675442 114.908241,28.7186824 C120.036967,37.6698205 122.46404,47.5814513 121.926771,57.3821874 C121.438087,66.2965092 117.921468,75.3529007 111.474382,84.3000306 C106.495872,91.2093425 100.234661,96.3738831 92.3326686,100.088629 C85.4818876,103.309323 78.2505901,105.033756 71.8703657,106.555105 C62.9696102,108.677541 55.2826143,110.510642 50.5508981,115.532965 C50.2703528,115.831458 49.878607,116 49.4687814,116 L49.4690785,116 Z M55.0282434,6.88684815 C54.2407631,5.50712349 52.7956626,4.57053184 51.2490811,4.20296155 C49.7026482,3.83539126 48.0648378,3.99705687 46.5405435,4.44746408 C43.9607285,5.2097716 41.6352845,6.80787101 40,8.94233207 C41.7857972,11.1195477 44.9681089,12.5714206 47.7617322,12.2068194 C50.5555041,11.8422182 53.8618811,9.44944843 55.0282434,6.88684815 L55.0282434,6.88684815 Z" id="Shape"></path>
                <path d="M78,6.7950103 C78.7860003,5.45917813 80.228385,4.5523818 81.7720599,4.19650484 C83.3155865,3.84062788 84.9503188,3.9971505 86.4717485,4.43322913 C89.0467151,5.17128575 91.3677888,6.71854562 93,8.78510414 C91.217559,10.8930571 88.0412279,12.2987423 85.2528548,11.94574 C82.4643334,11.5927376 79.1641703,9.27608786 78,6.7950103 L78,6.7950103 Z" id="Path"></path>
            </g>
            <text id="AM" font-family="Apple-Chancery, Apple Chancery" font-size="36" font-weight="normal">
                <tspan x="35" y="66">AM</tspan>
            </text>
        </g>
    </g>
</svg>